<svg width="21" height="18" viewBox="0 0 21 18" fill="none" xmlns="http://www.w3.org/2000/svg">
<path d="M8.02624 2L6.02624 4H2.19824V16H18.1982V4H14.3702L12.3702 2H8.02624ZM7.19824 0H13.1982L15.1982 2H19.1982C19.4635 2 19.7178 2.10536 19.9053 2.29289C20.0929 2.48043 20.1982 2.73478 20.1982 3V17C20.1982 17.2652 20.0929 17.5196 19.9053 17.7071C19.7178 17.8946 19.4635 18 19.1982 18H1.19824C0.933026 18 0.678672 17.8946 0.491135 17.7071C0.303599 17.5196 0.198242 17.2652 0.198242 17V3C0.198242 2.73478 0.303599 2.48043 0.491135 2.29289C0.678672 2.10536 0.933026 2 1.19824 2H5.19824L7.19824 0ZM10.1982 15C8.73955 15 7.3406 14.4205 6.30915 13.3891C5.2777 12.3576 4.69824 10.9587 4.69824 9.5C4.69824 8.04131 5.2777 6.64236 6.30915 5.61091C7.3406 4.57946 8.73955 4 10.1982 4C11.6569 4 13.0559 4.57946 14.0873 5.61091C15.1188 6.64236 15.6982 8.04131 15.6982 9.5C15.6982 10.9587 15.1188 12.3576 14.0873 13.3891C13.0559 14.4205 11.6569 15 10.1982 15ZM10.1982 13C11.1265 13 12.0167 12.6313 12.6731 11.9749C13.3295 11.3185 13.6982 10.4283 13.6982 9.5C13.6982 8.57174 13.3295 7.6815 12.6731 7.02513C12.0167 6.36875 11.1265 6 10.1982 6C9.26998 6 8.37975 6.36875 7.72337 7.02513C7.06699 7.6815 6.69824 8.57174 6.69824 9.5C6.69824 10.4283 7.06699 11.3185 7.72337 11.9749C8.37975 12.6313 9.26998 13 10.1982 13Z" fill="#21CF7A" fill-opacity="0.4"/>
</svg>
