<svg width="14" height="17" viewBox="0 0 14 17" fill="none" xmlns="http://www.w3.org/2000/svg">
<path d="M9.6 14.9V2.1H1.8V14.1C1.8 14.3122 1.86848 14.5157 1.99038 14.6657C2.11228 14.8157 2.27761 14.9 2.45 14.9H9.6ZM11.55 16.5H2.45C1.93283 16.5 1.43684 16.2471 1.07114 15.7971C0.705446 15.347 0.5 14.7365 0.5 14.1V1.3C0.5 1.08783 0.568482 0.884344 0.690381 0.734315C0.812279 0.584285 0.977609 0.5 1.15 0.5H10.25C10.4224 0.5 10.5877 0.584285 10.7096 0.734315C10.8315 0.884344 10.9 1.08783 10.9 1.3V6.9H13.5V14.1C13.5 14.7365 13.2946 15.347 12.9289 15.7971C12.5632 16.2471 12.0672 16.5 11.55 16.5ZM10.9 8.5V14.1C10.9 14.3122 10.9685 14.5157 11.0904 14.6657C11.2123 14.8157 11.3776 14.9 11.55 14.9C11.7224 14.9 11.8877 14.8157 12.0096 14.6657C12.1315 14.5157 12.2 14.3122 12.2 14.1V8.5H10.9ZM3.1 3.7H7V8.5H3.1V3.7ZM4.4 5.3V6.9H5.7V5.3H4.4ZM3.1 9.3H8.3V10.9H3.1V9.3ZM3.1 11.7H8.3V13.3H3.1V11.7Z" fill="#24B66F" fill-opacity="0.4"/>
</svg>
