<svg width="24" height="17" viewBox="0 0 24 17" fill="none" xmlns="http://www.w3.org/2000/svg">
<path opacity="0.75" fill-rule="evenodd" clip-rule="evenodd" d="M7.68748 7.78125C9.2753 7.78125 10.5625 6.58333 10.5625 4.1875C10.5625 1.79167 9.2753 0.59375 7.68748 0.59375C6.09966 0.59375 4.81248 1.79167 4.81248 4.1875C4.81248 6.58333 6.09966 7.78125 7.68748 7.78125ZM0.5 15.1125C0.5 12.9563 1.21875 9.21875 7.6875 9.21875C14.1562 9.21875 14.875 13.1 14.875 15.1125C14.875 16.1187 14.5875 16.4062 12.8625 16.4062H2.65625C0.93125 16.4062 0.5 16.1187 0.5 15.1125ZM14.3468 9.35216C16.9742 11.1736 17.6172 14.2067 17.7298 16.4062H21.4875C23.2125 16.4062 23.5 16.1187 23.5 15.1125C23.5 13.1 22.7813 9.21875 16.3125 9.21875C15.5874 9.21875 14.9345 9.26572 14.3468 9.35216ZM19.1875 4.1875C19.1875 6.58333 17.9003 7.78125 16.3125 7.78125C14.7247 7.78125 13.4375 6.58333 13.4375 4.1875C13.4375 1.79167 14.7247 0.59375 16.3125 0.59375C17.9003 0.59375 19.1875 1.79167 19.1875 4.1875Z" fill="#24B66F" fill-opacity="0.4"/>
</svg>
