<svg width="18" height="17" viewBox="0 0 18 17" fill="none" xmlns="http://www.w3.org/2000/svg">
<path d="M17.1 16.5H0.9C0.661305 16.5 0.432387 16.4064 0.263604 16.2397C0.0948211 16.073 5.38833e-09 15.8469 5.38833e-09 15.6111V8.93289C-1.40659e-05 8.80588 0.0275318 8.68034 0.0807819 8.56472C0.134032 8.44911 0.21175 8.34611 0.3087 8.26267L3.6 5.428V1.38889C3.6 1.15314 3.69482 0.927048 3.8636 0.760349C4.03239 0.59365 4.2613 0.5 4.5 0.5H17.1C17.3387 0.5 17.5676 0.59365 17.7364 0.760349C17.9052 0.927048 18 1.15314 18 1.38889V15.6111C18 15.8469 17.9052 16.073 17.7364 16.2397C17.5676 16.4064 17.3387 16.5 17.1 16.5ZM6.3 14.7222H9V9.33733L5.4 6.23689L1.8 9.33733V14.7222H4.5V11.1667H6.3V14.7222ZM10.8 14.7222H16.2V2.27778H5.4V4.16844C5.6106 4.16844 5.8221 4.24133 5.9913 4.388L10.4913 8.26267C10.5882 8.34611 10.666 8.44911 10.7192 8.56472C10.7725 8.68034 10.8 8.80588 10.8 8.93289V14.7222ZM12.6 7.61111H14.4V9.38889H12.6V7.61111ZM12.6 11.1667H14.4V12.9444H12.6V11.1667ZM12.6 4.05556H14.4V5.83333H12.6V4.05556ZM9 4.05556H10.8V5.83333H9V4.05556Z" fill="#24B66F" fill-opacity="0.4"/>
</svg>
