<svg width="18" height="18" viewBox="0 0 18 18" fill="none" xmlns="http://www.w3.org/2000/svg">
<path d="M2 8.1L4 6.1L9.5 11.6L13 8.1L16 11.1V2H2V8.1ZM2 10.929V16H5.1L8.086 13.015L4 8.929L2 10.929ZM7.929 16H16V13.929L13 10.929L7.929 16ZM1 0H17C17.2652 0 17.5196 0.105357 17.7071 0.292893C17.8946 0.48043 18 0.734784 18 1V17C18 17.2652 17.8946 17.5196 17.7071 17.7071C17.5196 17.8946 17.2652 18 17 18H1C0.734784 18 0.48043 17.8946 0.292893 17.7071C0.105357 17.5196 0 17.2652 0 17V1C0 0.734784 0.105357 0.48043 0.292893 0.292893C0.48043 0.105357 0.734784 0 1 0ZM12.5 7C12.1022 7 11.7206 6.84196 11.4393 6.56066C11.158 6.27936 11 5.89782 11 5.5C11 5.10218 11.158 4.72064 11.4393 4.43934C11.7206 4.15804 12.1022 4 12.5 4C12.8978 4 13.2794 4.15804 13.5607 4.43934C13.842 4.72064 14 5.10218 14 5.5C14 5.89782 13.842 6.27936 13.5607 6.56066C13.2794 6.84196 12.8978 7 12.5 7Z" fill="#21CF7A" fill-opacity="0.4"/>
</svg>
