<svg width="16" height="17" viewBox="0 0 16 17" fill="none" xmlns="http://www.w3.org/2000/svg">
<path d="M2.86842 13.3H4.44737V14.9H13.9211V2.1H4.44737V3.7H2.86842V1.3C2.86842 1.08783 2.9516 0.884344 3.09965 0.734315C3.24771 0.584285 3.44851 0.5 3.65789 0.5H14.7105C14.9199 0.5 15.1207 0.584285 15.2688 0.734315C15.4168 0.884344 15.5 1.08783 15.5 1.3V15.7C15.5 15.9122 15.4168 16.1157 15.2688 16.2657C15.1207 16.4157 14.9199 16.5 14.7105 16.5H3.65789C3.44851 16.5 3.24771 16.4157 3.09965 16.2657C2.9516 16.1157 2.86842 15.9122 2.86842 15.7V13.3ZM4.44737 7.7H9.97368V9.3H4.44737V11.7L0.5 8.5L4.44737 5.3V7.7Z" fill="#F44848" fill-opacity="0.5"/>
</svg>
