<svg width="20" height="17" viewBox="0 0 20 17" fill="none" xmlns="http://www.w3.org/2000/svg">
<path d="M1 0.5H19C19.2652 0.5 19.5196 0.59365 19.7071 0.760349C19.8946 0.927048 20 1.15314 20 1.38889V15.6111C20 15.8469 19.8946 16.073 19.7071 16.2397C19.5196 16.4064 19.2652 16.5 19 16.5H1C0.734784 16.5 0.48043 16.4064 0.292893 16.2397C0.105357 16.073 0 15.8469 0 15.6111V1.38889C0 1.15314 0.105357 0.927048 0.292893 0.760349C0.48043 0.59365 0.734784 0.5 1 0.5ZM18 4.26711L10.072 10.5782L2 4.24756V14.7222H18V4.26711ZM2.511 2.27778L10.061 8.19956L17.502 2.27778H2.511Z" fill="#FFFFFF" fill-opacity="1"/>
</svg>
