<svg width="27" height="27" viewBox="0 0 27 27" fill="none" xmlns="http://www.w3.org/2000/svg">
<path d="M0.179374 15.5103C-0.0597912 14.0712 -0.0597912 12.6026 0.179374 11.1636C1.64871 11.1983 2.96871 10.4943 3.48204 9.2556C3.99537 8.0156 3.55937 6.5836 2.49537 5.5716C3.34392 4.38398 4.38279 3.34466 5.57004 2.4956C6.58337 3.5596 8.01537 3.9956 9.25537 3.48226C10.4954 2.96893 11.198 1.6476 11.162 0.179595C12.6019 -0.0598651 14.0715 -0.0598651 15.5114 0.179595C15.4754 1.64893 16.1794 2.96893 17.418 3.48226C18.658 3.9956 20.09 3.5596 21.102 2.4956C22.2897 3.34415 23.329 4.38301 24.178 5.57026C23.114 6.5836 22.678 8.0156 23.1914 9.2556C23.7047 10.4956 25.026 11.1983 26.494 11.1623C26.7335 12.6022 26.7335 14.0717 26.494 15.5116C25.0247 15.4756 23.7047 16.1796 23.1914 17.4183C22.678 18.6583 23.114 20.0903 24.178 21.1023C23.3295 22.2899 22.2906 23.3292 21.1034 24.1783C20.09 23.1143 18.658 22.6783 17.418 23.1916C16.178 23.7049 15.4754 25.0263 15.5114 26.4943C14.0715 26.7337 12.6019 26.7337 11.162 26.4943C11.198 25.0249 10.494 23.7049 9.25537 23.1916C8.01537 22.6783 6.58337 23.1143 5.57137 24.1783C4.38376 23.3297 3.34444 22.2908 2.49537 21.1036C3.55937 20.0903 3.99537 18.6583 3.48204 17.4183C2.96871 16.1783 1.64737 15.4756 0.179374 15.5116V15.5103ZM13.3367 17.3369C14.3976 17.3369 15.415 16.9155 16.1651 16.1654C16.9153 15.4152 17.3367 14.3978 17.3367 13.3369C17.3367 12.2761 16.9153 11.2586 16.1651 10.5085C15.415 9.75836 14.3976 9.33693 13.3367 9.33693C12.2758 9.33693 11.2584 9.75836 10.5083 10.5085C9.75813 11.2586 9.33671 12.2761 9.33671 13.3369C9.33671 14.3978 9.75813 15.4152 10.5083 16.1654C11.2584 16.9155 12.2758 17.3369 13.3367 17.3369V17.3369Z" fill="#24B66F"/>
</svg>
