<svg width="21" height="20" viewBox="0 0 21 20" fill="none" xmlns="http://www.w3.org/2000/svg">
<path d="M10.1982 20C4.67524 20 0.198242 15.523 0.198242 10C0.198242 4.477 4.67524 0 10.1982 0C15.7212 0 20.1982 4.477 20.1982 10C20.1982 15.523 15.7212 20 10.1982 20ZM10.1982 18C12.32 18 14.3548 17.1571 15.8551 15.6569C17.3554 14.1566 18.1982 12.1217 18.1982 10C18.1982 7.87827 17.3554 5.84344 15.8551 4.34315C14.3548 2.84285 12.32 2 10.1982 2C8.07651 2 6.04168 2.84285 4.54139 4.34315C3.0411 5.84344 2.19824 7.87827 2.19824 10C2.19824 12.1217 3.0411 14.1566 4.54139 15.6569C6.04168 17.1571 8.07651 18 10.1982 18ZM5.19824 11H7.19824C7.19824 11.7956 7.51431 12.5587 8.07692 13.1213C8.63953 13.6839 9.40259 14 10.1982 14C10.9939 14 11.757 13.6839 12.3196 13.1213C12.8822 12.5587 13.1982 11.7956 13.1982 11H15.1982C15.1982 12.3261 14.6715 13.5979 13.7338 14.5355C12.7961 15.4732 11.5243 16 10.1982 16C8.87216 16 7.60039 15.4732 6.66271 14.5355C5.72503 13.5979 5.19824 12.3261 5.19824 11ZM6.19824 9C5.80042 9 5.41889 8.84196 5.13758 8.56066C4.85628 8.27936 4.69824 7.89782 4.69824 7.5C4.69824 7.10218 4.85628 6.72064 5.13758 6.43934C5.41889 6.15804 5.80042 6 6.19824 6C6.59607 6 6.9776 6.15804 7.2589 6.43934C7.54021 6.72064 7.69824 7.10218 7.69824 7.5C7.69824 7.89782 7.54021 8.27936 7.2589 8.56066C6.9776 8.84196 6.59607 9 6.19824 9ZM14.1982 9C13.8004 9 13.4189 8.84196 13.1376 8.56066C12.8563 8.27936 12.6982 7.89782 12.6982 7.5C12.6982 7.10218 12.8563 6.72064 13.1376 6.43934C13.4189 6.15804 13.8004 6 14.1982 6C14.5961 6 14.9776 6.15804 15.2589 6.43934C15.5402 6.72064 15.6982 7.10218 15.6982 7.5C15.6982 7.89782 15.5402 8.27936 15.2589 8.56066C14.9776 8.84196 14.5961 9 14.1982 9Z" fill="#21CF7A" fill-opacity="0.4"/>
</svg>
