<svg width="20" height="20" viewBox="0 0 20 20" fill="none" xmlns="http://www.w3.org/2000/svg">
<path d="M9.38 0.019043C8.64313 0.705664 8.05211 1.53367 7.64219 2.45366C7.23227 3.37366 7.01185 4.36679 6.99408 5.37382C6.97632 6.38085 7.16156 7.38114 7.53877 8.31502C7.91598 9.2489 8.47743 10.0972 9.18962 10.8094C9.9018 11.5216 10.7501 12.0831 11.684 12.4603C12.6179 12.8375 13.6182 13.0227 14.6252 13.005C15.6323 12.9872 16.6254 12.7668 17.5454 12.3569C18.4654 11.9469 19.2934 11.3559 19.98 10.619C19.662 15.854 15.316 20 10.001 20C4.477 20 0 15.523 0 10C0 4.68504 4.146 0.339043 9.38 0.019043Z" fill="#24B66F"/>
</svg>
