<svg width="20" height="21" viewBox="0 0 20 21" fill="none" xmlns="http://www.w3.org/2000/svg">
<path d="M15 4.78223H20V6.78223H18V19.7822C18 20.0474 17.8946 20.3018 17.7071 20.4893C17.5196 20.6769 17.2652 20.7822 17 20.7822H3C2.73478 20.7822 2.48043 20.6769 2.29289 20.4893C2.10536 20.3018 2 20.0474 2 19.7822V6.78223H0V4.78223H5V1.78223C5 1.51701 5.10536 1.26266 5.29289 1.07512C5.48043 0.887583 5.73478 0.782227 6 0.782227H14C14.2652 0.782227 14.5196 0.887583 14.7071 1.07512C14.8946 1.26266 15 1.51701 15 1.78223V4.78223ZM16 6.78223H4V18.7822H16V6.78223ZM7 9.78223H9V15.7822H7V9.78223ZM11 9.78223H13V15.7822H11V9.78223ZM7 2.78223V4.78223H13V2.78223H7Z" fill="white"/>
</svg>
